<svg width="106" height="107" viewBox="0 0 106 107" fill="none" xmlns="http://www.w3.org/2000/svg">
<circle cx="53.0283" cy="53.0761" r="48.9716" fill="#DFFFE2" stroke="url(#paint0_linear_168_17874)" stroke-width="8"/>
<path d="M29.9619 31.7908C29.9619 30.4881 30.4718 29.2387 31.3794 28.3176C32.287 27.3964 33.518 26.8789 34.8016 26.8789H57.3868C58.6703 26.8789 59.9013 27.3964 60.8089 28.3176C61.7166 29.2387 62.2264 30.4881 62.2264 31.7908V37.6622L72.7705 48.3636C74.2823 49.8984 75.1318 51.9796 75.1323 54.1499V77.6354C75.1323 78.0696 74.9623 78.4861 74.6598 78.7931C74.3572 79.1002 73.9469 79.2727 73.519 79.2727C73.0912 79.2727 72.6809 79.1002 72.3783 78.7931C72.0758 78.4861 71.9058 78.0696 71.9058 77.6354V54.1499C71.9047 52.8476 71.394 51.599 70.4862 50.6788L62.2264 42.2958V52.3979L64.9818 55.1912C65.2843 55.4986 65.4541 55.9154 65.4538 56.3499C65.4535 56.7844 65.2831 57.201 64.9802 57.508C64.8302 57.66 64.6522 57.7805 64.4563 57.8627C64.2604 57.9449 64.0505 57.9871 63.8385 57.987C63.4104 57.9867 63 57.8138 62.6975 57.5063L53.0182 47.6825C51.6566 46.3006 50.8984 46.3596 50.566 46.4447C50.0079 46.5822 49.5142 47.0341 48.8238 47.7087C48.5011 48.0231 48.3656 48.3309 48.4301 48.7893C48.514 49.3624 48.956 50.3873 50.4628 51.9166L54.3765 55.8887L55.2993 56.8285C55.4495 56.9806 55.5688 57.1612 55.6502 57.3601C55.7316 57.5591 55.7735 57.7723 55.7735 57.9877C55.7735 60.5222 55.7929 63.0732 56.4834 64.9986C56.8125 65.9188 57.2609 66.5901 57.8514 67.0387C58.4289 67.4775 59.2807 67.8115 60.6132 67.8115C61.0411 67.8115 61.4514 67.984 61.7539 68.2911C62.0565 68.5981 62.2264 69.0146 62.2264 69.4488V74.3607C62.2264 75.6635 61.7166 76.9128 60.8089 77.834C59.9013 78.7552 58.6703 79.2727 57.3868 79.2727H34.8016C33.518 79.2727 32.287 78.7552 31.3794 77.834C30.4718 76.9128 29.9619 75.6635 29.9619 74.3607V31.7908ZM46.0942 44.8893C44.7393 44.8891 43.4062 45.2353 42.2179 45.8959C41.0296 46.5565 40.0245 47.5103 39.2952 48.6692C38.5659 49.8281 38.136 51.1548 38.0451 52.5268C37.9542 53.8988 38.2054 55.2719 38.7753 56.5195C39.3452 57.767 40.2156 58.8487 41.3061 59.6648C42.3966 60.4809 43.672 61.005 45.0148 61.1888C46.3575 61.3727 47.7242 61.2103 48.9888 60.7166C50.2533 60.2229 51.375 59.4139 52.2503 58.3643L52.0889 58.2005L48.1785 54.2317C46.4588 52.4864 45.4683 50.8458 45.2392 49.2674C45.1279 48.5503 45.1935 47.8164 45.43 47.1312C45.6664 46.4461 46.0665 45.8311 46.5943 45.3412L46.704 45.2331L47.0073 44.9384C46.7041 44.9047 46.3992 44.8883 46.0942 44.8893ZM52.5471 74.3607V75.9981H55.7735V74.3607C55.7735 73.9265 55.9435 73.5101 56.246 73.203C56.5486 72.8959 56.9589 72.7234 57.3868 72.7234H59V70.9552C57.8918 70.7843 56.8405 70.3451 55.9349 69.6748C54.9524 69.9884 54.0941 70.6119 53.4848 71.4546C52.8755 72.2974 52.547 73.3155 52.5471 74.3607ZM33.1884 36.7027H34.8016C36.0852 36.7027 37.3161 36.1852 38.2238 35.2641C39.1314 34.3429 39.6413 33.0935 39.6413 31.7908V30.1535H36.4148V31.7908C36.4148 32.2251 36.2449 32.6415 35.9423 32.9486C35.6398 33.2556 35.2294 33.4281 34.8016 33.4281H33.1884V36.7027ZM52.5471 31.7908C52.5471 33.0935 53.057 34.3429 53.9646 35.2641C54.8722 36.1852 56.1032 36.7027 57.3868 36.7027H59V33.4281H57.3868C56.9589 33.4281 56.5486 33.2556 56.246 32.9486C55.9435 32.6415 55.7735 32.2251 55.7735 31.7908V30.1535H52.5471V31.7908ZM39.6413 74.3607C39.6413 73.058 39.1314 71.8087 38.2238 70.8875C37.3161 69.9663 36.0852 69.4488 34.8016 69.4488H33.1884V72.7234H34.8016C35.2294 72.7234 35.6398 72.8959 35.9423 73.203C36.2449 73.5101 36.4148 73.9265 36.4148 74.3607V75.9981H39.6413V74.3607Z" fill="url(#paint1_linear_168_17874)"/>
<defs>
<linearGradient id="paint0_linear_168_17874" x1="-26.4717" y1="30.1045" x2="117.028" y2="46.6045" gradientUnits="userSpaceOnUse">
<stop stop-color="#71C7B7"/>
<stop offset="1" stop-color="#1BB234"/>
</linearGradient>
<linearGradient id="paint1_linear_168_17874" x1="-39.9408" y1="94.5425" x2="118.154" y2="69.6868" gradientUnits="userSpaceOnUse">
<stop offset="0.47274" stop-color="#71C7B7"/>
<stop offset="0.665862" stop-color="#1BB234"/>
</linearGradient>
</defs>
</svg>
