<svg width="107" height="107" viewBox="0 0 107 107" fill="none" xmlns="http://www.w3.org/2000/svg">
<circle cx="53.5" cy="53.0761" r="48.9716" fill="#DFFFE2" stroke="url(#paint0_linear_168_17869)" stroke-width="8"/>
<path fill-rule="evenodd" clip-rule="evenodd" d="M26.2119 39.4316C26.2119 37.2604 27.0744 35.1782 28.6097 33.6429C30.145 32.1076 32.2272 31.2451 34.3984 31.2451H72.6022C74.7734 31.2451 76.8557 32.1076 78.391 33.6429C79.9262 35.1782 80.7887 37.2604 80.7887 39.4316V42.1605H26.2119V39.4316ZM26.2119 47.6182V66.7201C26.2119 68.8913 27.0744 70.9735 28.6097 72.5088C30.145 74.0441 32.2272 74.9066 34.3984 74.9066H72.6022C74.7734 74.9066 76.8557 74.0441 78.391 72.5088C79.9262 70.9735 80.7887 68.8913 80.7887 66.7201V47.6182H26.2119ZM39.8561 53.0758C39.1324 53.0758 38.4383 53.3633 37.9265 53.8751C37.4148 54.3869 37.1273 55.081 37.1273 55.8047C37.1273 56.5284 37.4148 57.2225 37.9265 57.7343C38.4383 58.246 39.1324 58.5335 39.8561 58.5335H53.5003C54.2241 58.5335 54.9182 58.246 55.4299 57.7343C55.9417 57.2225 56.2292 56.5284 56.2292 55.8047C56.2292 55.081 55.9417 54.3869 55.4299 53.8751C54.9182 53.3633 54.2241 53.0758 53.5003 53.0758H39.8561Z" fill="url(#paint1_linear_168_17869)"/>
<defs>
<linearGradient id="paint0_linear_168_17869" x1="-26" y1="30.1045" x2="117.5" y2="46.6045" gradientUnits="userSpaceOnUse">
<stop stop-color="#71C7B7"/>
<stop offset="1" stop-color="#1BB234"/>
</linearGradient>
<linearGradient id="paint1_linear_168_17869" x1="-58.2477" y1="87.6314" x2="127.823" y2="45.2163" gradientUnits="userSpaceOnUse">
<stop offset="0.47274" stop-color="#71C7B7"/>
<stop offset="0.665862" stop-color="#1BB234"/>
</linearGradient>
</defs>
</svg>
