<svg width="156" height="154" viewBox="0 0 156 154" fill="none" xmlns="http://www.w3.org/2000/svg">
<path fill-rule="evenodd" clip-rule="evenodd" d="M64.2978 0.476251C64.9488 0.437501 65.6308 0.4375 66.5143 0.4375H88.8265C89.7022 0.4375 90.3843 0.437501 91.0353 0.476251C95.0619 0.721032 98.9364 2.10361 102.208 4.46328C105.48 6.82295 108.015 10.0628 109.519 13.8062C109.759 14.403 109.984 15.0463 110.255 15.8833L110.279 15.9607C110.93 17.6967 112.41 19.673 114.487 21.254C114.719 21.4322 114.952 21.595 115.184 21.75C131.87 21.7733 140.581 22.0755 146.587 26.9657C147.827 27.9732 148.951 29.097 149.951 30.3292C155.167 36.7385 155.167 46.2323 155.167 65.2197C155.167 70.0403 155.167 72.4428 154.004 74.326C153.775 74.6933 153.516 75.0407 153.229 75.3645C151.757 77.023 149.455 77.7127 144.844 79.1L108.667 89.95V83.75C108.667 79.6391 107.033 75.6967 104.127 72.7898C101.22 69.883 97.2774 68.25 93.1665 68.25H62.1665C58.0556 68.25 54.1132 69.883 51.2064 72.7898C48.2995 75.6967 46.6665 79.6391 46.6665 83.75V89.95L10.4895 79.1C5.87825 77.7127 3.56875 77.023 2.104 75.3645C1.81719 75.0405 1.55795 74.6932 1.329 74.326C0.166505 72.4428 0.166504 70.0403 0.166504 65.2197C0.166504 46.2323 0.166505 36.7385 5.38225 30.3292C6.38975 29.0892 7.5135 27.9655 8.74576 26.9657C14.752 22.0832 23.463 21.7733 40.1565 21.75C40.389 21.595 40.6215 21.4322 40.854 21.254C42.9233 19.673 44.4113 17.689 45.0545 15.9607C45.349 15.0772 45.566 14.4107 45.814 13.7985C47.3187 10.0565 49.8543 6.81827 53.1262 4.46004C56.3981 2.1018 60.272 0.720373 64.2978 0.476251ZM99.5138 20.3395C99.6998 20.82 99.9013 21.285 100.134 21.75H55.1993C55.424 21.285 55.6255 20.82 55.8193 20.3395V20.3162L55.858 20.2387L55.8968 20.1458L55.9355 20.0528L55.9588 19.9753L55.9743 19.9365L56.0053 19.8435L56.0363 19.7505L56.0518 19.704L56.075 19.642L56.0905 19.5878L56.106 19.5413C56.4083 18.6423 56.5013 18.3555 56.5943 18.1385C57.2774 16.4368 58.4295 14.9639 59.9167 13.8911C61.4038 12.8182 63.1649 12.1895 64.9953 12.078C65.2433 12.0625 65.5533 12.0625 66.6615 12.0625H88.656C89.7643 12.0625 90.0743 12.0625 90.3223 12.078C94.0578 12.3105 97.3283 14.6665 98.731 18.1385C98.8085 18.3555 98.9092 18.6268 99.2115 19.5413L99.227 19.5878L99.2425 19.642L99.2658 19.704L99.2812 19.7505L99.3123 19.8435L99.3433 19.9365L99.3587 19.9753L99.3898 20.0528L99.4208 20.1458L99.4595 20.2387L99.4905 20.3162L99.506 20.3395H99.5138ZM93.1665 79.875H62.1665C61.1388 79.875 60.1532 80.2833 59.4265 81.01C58.6998 81.7367 58.2915 82.7223 58.2915 83.75V100.506C58.2917 101.279 58.5236 102.035 58.9573 102.676C59.391 103.317 60.0067 103.814 60.725 104.102L66.15 106.271C73.5427 109.23 81.7903 109.23 89.183 106.271L94.608 104.102C95.3263 103.814 95.942 103.317 96.3757 102.676C96.8094 102.035 97.0413 101.279 97.0415 100.506V83.75C97.0415 82.7223 96.6332 81.7367 95.9065 81.01C95.1798 80.2833 94.1942 79.875 93.1665 79.875ZM46.744 102.118L7.963 90.477C8.1955 114.611 9.606 136.837 18.131 144.417C28.3455 153.5 44.791 153.5 77.6665 153.5C110.542 153.5 126.987 153.5 137.202 144.417C145.727 136.845 147.137 114.611 147.37 90.477L108.581 102.11C108.289 104.919 107.236 107.594 105.534 109.848C103.832 112.102 101.547 113.848 98.9248 114.897L93.4998 117.067C83.3359 121.134 71.9971 121.134 61.8333 117.067L56.4083 114.897C53.7865 113.848 51.5012 112.102 49.7994 109.848C48.0975 107.594 47.0437 104.919 46.7518 102.11L46.744 102.118Z" fill="white"/>
</svg>
