<svg width="135" height="186" viewBox="0 0 135 186" fill="none" xmlns="http://www.w3.org/2000/svg">
<path d="M106.235 47.3886C106.235 47.3886 109.936 23.7185 103.897 16.5625C97.8493 9.41609 90.6998 10.2756 90.6998 10.2756C90.6998 10.2756 84.0334 -0.820638 67.7538 0.0485185C51.4742 0.908018 36.5568 3.37063 28.161 22.8494V48.7406C28.161 48.7406 22.1226 47.1375 22.4897 56.3892C22.8665 65.6312 28.5378 72.1692 28.5378 72.1692C28.5378 72.1692 28.7793 87.4567 31.1271 91.648C33.4652 95.8392 52.7302 115.685 67.1548 115.685C81.5697 115.685 104.757 90.4118 104.757 90.4118C104.757 90.4118 106.854 83.758 105.743 70.5661C105.743 70.5661 110.95 65.4574 112.032 54.6605C112.902 46.0269 106.235 47.3886 106.235 47.3886ZM66.4785 100.436C66.4785 100.436 57.5995 100.938 50.1989 93.8691C50.1989 93.8691 59.9086 84.3277 66.4785 84.3277C73.0579 84.3277 82.7677 93.8691 82.7677 93.8691C75.367 100.938 66.4785 100.436 66.4785 100.436ZM100.815 59.0546C100.197 85.3997 89.7143 88.3162 89.7143 88.3162C89.7143 88.3162 82.8064 73.3957 65.7828 73.3957C48.7593 73.3957 45.0589 90.4118 45.0589 90.4118C45.0589 90.4118 33.7164 89.3012 33.4652 60.8219C33.2236 32.3425 38.2766 29.3488 53.2422 33.3758C68.2079 37.4029 81.0383 27.707 81.0383 27.707C93.5789 29.3488 101.424 32.7192 100.815 59.0546Z" fill="white"/>
<path d="M135.366 134.653C135.366 150.413 135.366 179.182 135.366 179.182C135.366 179.182 135.366 186.58 128.129 186.58C120.893 186.58 67.2907 186.58 67.2907 186.58C67.2907 186.58 13.6985 186.58 6.46204 186.58C-0.774414 186.58 -0.774414 179.182 -0.774414 179.182C-0.774414 179.182 -0.774414 150.413 -0.774414 134.653C-0.774414 121.77 23.7078 113.571 32.664 111.002C34.6832 110.432 36.8474 111.147 38.0937 112.827C47.1369 124.986 54.441 148.018 56.0931 153.494C56.238 153.977 56.8757 154.064 57.1558 153.648L66.1024 140.408L57.465 131.784C56.9433 131.263 56.9433 130.413 57.465 129.891L66.3536 121.016C66.8753 120.495 67.7158 120.495 68.2376 121.016L77.1261 129.891C77.6479 130.413 77.6479 131.263 77.1261 131.784L68.4791 140.418L77.4353 153.648C77.7155 154.064 78.3435 153.977 78.4884 153.494C80.1502 148.018 87.4446 124.986 96.4974 112.827C97.7437 111.147 99.9079 110.432 101.927 111.002C110.874 113.571 135.366 121.77 135.366 134.653Z" fill="white"/>
<path d="M82.8062 93.8695C75.4055 100.939 66.5169 100.436 66.5169 100.436C66.5169 100.436 57.638 100.939 50.2373 93.8695C50.2373 93.8695 59.9471 84.3281 66.5169 84.3281C73.0964 84.3281 82.8062 93.8695 82.8062 93.8695Z" stroke="white" stroke-miterlimit="10"/>
</svg>
