<svg width="111" height="180" viewBox="0 0 111 180" fill="none" xmlns="http://www.w3.org/2000/svg">
<g clip-path="url(#clip0_146_12091)">
<path d="M104.857 23.7207H5.84613C2.80829 23.7207 0.333008 26.1707 0.333008 29.1775V174.581C0.333008 177.587 2.80829 180.037 5.84613 180.037H104.857C107.895 180.037 110.371 177.587 110.371 174.581V29.1775C110.333 26.1707 107.895 23.7207 104.857 23.7207ZM55.3518 42.9494C74.5539 42.9494 90.1557 58.3918 90.1557 77.3978C90.1557 96.4037 74.5539 111.846 55.3518 111.846C36.1496 111.846 20.5478 96.3666 20.5478 77.3978C20.5103 58.3918 36.1496 42.9494 55.3518 42.9494ZM72.4912 134.861C72.4912 138.054 70.6535 139.91 67.9532 139.91C65.2529 139.91 63.4152 138.054 63.4152 134.861C63.4152 131.706 65.2529 129.924 67.9532 129.924C70.691 129.887 72.4912 131.706 72.4912 134.861ZM62.2901 133.265C62.2901 135.641 60.4148 136.643 58.3896 136.643H57.3395V139.687H54.7517V130.035H58.3146C60.4523 130.073 62.2901 130.852 62.2901 133.265ZM49.2011 136.086L48.0009 135.566C46.9508 135.158 46.0507 134.267 46.0507 132.894C46.0507 131.26 47.5509 129.887 49.6886 129.887C50.8138 129.887 52.0139 130.295 52.914 131.186L51.6388 132.782C50.9638 132.337 50.4012 132.077 49.6886 132.077C49.051 132.077 48.676 132.3 48.676 132.745C48.676 133.191 49.2386 133.376 50.1012 133.71L51.3013 134.156C52.5014 134.638 53.214 135.455 53.214 136.791C53.214 138.425 51.8264 139.872 49.3886 139.872C48.1509 139.872 46.7633 139.427 45.7132 138.499L47.1758 136.754C47.8509 137.311 48.751 137.682 49.4636 137.682C50.2512 137.682 50.5887 137.423 50.5887 137.014C50.5512 136.569 50.0637 136.42 49.2011 136.086ZM41.0626 136.086L39.8625 135.566C38.8124 135.158 37.9123 134.267 37.9123 132.894C37.9123 131.26 39.4125 129.887 41.5502 129.887C42.6753 129.887 43.8755 130.295 44.7756 131.186L43.5004 132.782C42.8253 132.337 42.2628 132.077 41.5502 132.077C40.9126 132.077 40.5376 132.3 40.5376 132.745C40.5376 133.191 41.1001 133.376 41.9627 133.71L43.1629 134.156C44.363 134.638 45.0756 135.455 45.0756 136.791C45.0756 138.425 43.6879 139.872 41.2502 139.872C40.0125 139.872 38.6249 139.427 37.5747 138.499L39.0374 136.754C39.7125 137.311 40.6126 137.682 41.3252 137.682C42.1128 137.682 42.4503 137.423 42.4503 137.014C42.3753 136.569 41.8877 136.42 41.0626 136.086ZM24.6358 136.68H23.5857V139.724H20.9979V130.073H24.5608C26.6985 130.073 28.5362 130.852 28.5362 133.265C28.5362 135.641 26.661 136.68 24.6358 136.68ZM31.0865 130.073H34.1994L37.1622 139.724H34.4619L33.9743 137.682H31.2365L30.749 139.724H28.1237L31.0865 130.073ZM80.1421 156.428C79.767 156.8 79.2045 157.06 78.6419 157.06H32.0241C30.8615 157.06 29.8864 156.094 29.8864 154.944C29.8864 153.793 30.8615 152.828 32.0241 152.828H78.6419C79.8045 152.828 80.7797 153.756 80.7797 154.944C80.7797 155.538 80.5171 156.057 80.1421 156.428ZM80.1421 149.041C79.767 149.413 79.2045 149.672 78.6419 149.672H32.0241C30.8615 149.672 29.8864 148.744 29.8864 147.557C29.8864 146.406 30.8615 145.441 32.0241 145.441H78.6419C79.8045 145.441 80.7797 146.369 80.7797 147.557C80.7797 148.113 80.5171 148.67 80.1421 149.041ZM79.5045 139.724L77.8168 136.494H76.8417V139.724H74.2539V130.073H77.9293C80.0296 130.073 81.8298 130.778 81.8298 133.191C81.8298 134.564 81.1922 135.455 80.2546 135.975L82.3923 139.724H79.5045ZM90.4183 132.226H87.8305V139.724H85.2427V132.226H82.6549V130.073H90.3807V132.226H90.4183Z" fill="white"/>
<path d="M33.4867 135.714H31.6865L31.8365 135.046C32.0616 134.118 32.3241 132.967 32.5116 132.002H32.5866C32.8117 132.967 33.0742 134.155 33.2992 135.046L33.4867 135.714Z" fill="white"/>
<path d="M43.1251 49.1113C42.0375 50.3734 40.9874 51.784 40.0498 53.3802C38.5121 55.9416 37.2744 58.837 36.3368 61.9923H28.4609C31.7988 56.3128 36.9369 51.7469 43.1251 49.1113Z" fill="white"/>
<path d="M35.2497 66.2246C34.6496 69.1201 34.2746 72.164 34.1621 75.2822H24.3359C24.561 72.1269 25.2735 69.0458 26.3987 66.2246H35.2497Z" fill="white"/>
<path d="M35.2497 88.5712H26.3987C25.2735 85.75 24.561 82.7061 24.3359 79.5137H34.1621C34.3121 82.6318 34.6496 85.6758 35.2497 88.5712Z" fill="white"/>
<path d="M43.1251 105.684C36.9369 103.048 31.7988 98.5194 28.4609 92.8027H36.3368C37.2744 95.9209 38.5496 98.8535 40.0498 101.415C40.9874 102.974 42.0375 104.422 43.1251 105.684Z" fill="white"/>
<path d="M82.2423 92.7656C78.9044 98.4823 73.7288 103.011 67.5781 105.647C68.6657 104.385 69.7159 102.974 70.6535 101.378C72.1911 98.8164 73.4288 95.9209 74.3664 92.7656H82.2423Z" fill="white"/>
<path d="M86.3307 79.5137C86.1057 82.669 85.3931 85.75 84.268 88.5712H75.417C76.0171 85.6758 76.3921 82.6318 76.5046 79.5137H86.3307Z" fill="white"/>
<path d="M86.3307 75.2822H76.5046C76.3921 72.164 76.0171 69.1201 75.417 66.2246H84.268C85.3931 69.0829 86.1057 72.1269 86.3307 75.2822Z" fill="white"/>
<path d="M82.2423 61.9923H74.3664C73.4288 58.8742 72.1536 55.9787 70.6535 53.3802C69.7159 51.784 68.6657 50.3363 67.5781 49.1113C73.7288 51.7469 78.8669 56.3128 82.2423 61.9923Z" fill="white"/>
<path d="M53.2148 46.7364V46.8848C53.7774 46.7735 54.34 46.6992 54.94 46.6621C54.34 46.6621 53.7774 46.6992 53.2148 46.7364ZM53.2148 107.912V108.06C53.7774 108.097 54.34 108.135 54.94 108.135C54.34 108.097 53.7774 108.023 53.2148 107.912ZM55.7651 46.6621C56.3277 46.6992 56.9278 46.7735 57.4903 46.8848V46.7364C56.8903 46.6992 56.3277 46.6621 55.7651 46.6621Z" fill="white"/>
<path d="M53.2144 79.5137V88.5712H39.1128C38.4753 85.7129 38.0627 82.669 37.9502 79.5137H53.2144Z" fill="white"/>
<path d="M53.2144 66.2246V75.2822H37.9502C38.0627 72.1269 38.4753 69.0829 39.1128 66.2246H53.2144Z" fill="white"/>
<path d="M53.2144 46.8848V61.993H40.2754C41.1005 59.543 42.1131 57.2787 43.3132 55.2741C46.051 50.5969 49.5389 47.7014 53.2144 46.8848Z" fill="white"/>
<path d="M53.2144 92.7656V107.874C49.5389 107.057 46.051 104.162 43.3132 99.4845C42.1131 97.4429 41.1005 95.2156 40.2754 92.7656H53.2144Z" fill="white"/>
<path d="M72.7545 79.5137C72.642 82.669 72.2294 85.6758 71.5918 88.5712H57.4902V79.5137H72.7545Z" fill="white"/>
<path d="M70.4292 92.7656C69.6041 95.2156 68.5915 97.48 67.3914 99.4845C64.616 104.162 61.1657 107.057 57.4902 107.874V92.7656H70.4292Z" fill="white"/>
<path d="M70.4292 61.993H57.4902V46.8848C61.1657 47.7014 64.616 50.5969 67.3914 55.2741C68.5915 57.3158 69.6041 59.5802 70.4292 61.993Z" fill="white"/>
<path d="M72.7545 75.2822H57.4902V66.2246H71.5918C72.2294 69.0829 72.642 72.1269 72.7545 75.2822Z" fill="white"/>
<path d="M25.9856 133.266C25.9856 134.12 25.4981 134.639 24.4855 134.639H23.5479V132.078H24.4104C25.4231 132.115 25.9856 132.412 25.9856 133.266Z" fill="white"/>
<path d="M59.7395 133.266C59.7395 134.12 59.252 134.639 58.2394 134.639H57.3018V132.078H58.1644C59.177 132.115 59.7395 132.412 59.7395 133.266Z" fill="white"/>
<path d="M69.8657 134.862C69.8657 136.607 69.1531 137.721 67.9904 137.721C66.8278 137.721 66.1152 136.607 66.1152 134.862C66.1152 133.118 66.8278 132.115 67.9904 132.115C69.1531 132.115 69.8657 133.118 69.8657 134.862Z" fill="white"/>
<path d="M79.3165 133.192C79.3165 134.008 78.7914 134.454 77.7413 134.454H76.8037V132.078H77.7413C78.7914 132.115 79.3165 132.375 79.3165 133.192Z" fill="white"/>
<path d="M54.9391 108.135C54.3765 108.135 53.7764 108.098 53.2139 108.061V107.912C53.7764 108.023 54.339 108.098 54.9391 108.135Z" fill="white"/>
<path d="M54.9391 46.6621C54.3765 46.6992 53.7764 46.7735 53.2139 46.8848V46.7364C53.7764 46.6992 54.339 46.6621 54.9391 46.6621Z" fill="white"/>
<path d="M57.4889 46.7364V46.8848C56.9263 46.7735 56.3637 46.6992 55.7637 46.6621C56.3262 46.6621 56.8888 46.6992 57.4889 46.7364Z" fill="white"/>
<path d="M96.156 2.15388V19.6379H20.96L93.3807 0.0750991C94.0558 -0.110506 94.7308 0.0379781 95.2559 0.44631C95.8185 0.854641 96.156 1.4857 96.156 2.15388Z" fill="white"/>
</g>
<defs>
<clipPath id="clip0_146_12091">
<rect width="110" height="180" fill="white" transform="translate(0.333008)"/>
</clipPath>
</defs>
</svg>
