<svg width="84" height="52" viewBox="0 0 84 52" fill="none" xmlns="http://www.w3.org/2000/svg">
<path d="M53.2893 6.09082H30.8457V46.5052H53.2893V6.09082Z" fill="#FF5F00"/>
<path d="M32.2713 26.298C32.2678 22.4058 33.148 18.5639 34.8453 15.0629C36.5426 11.562 39.0125 8.49389 42.068 6.09087C38.2842 3.11057 33.7398 1.25717 28.9545 0.742496C24.1691 0.227826 19.3358 1.07264 15.0069 3.18041C10.678 5.28819 7.02832 8.57387 4.4749 12.6619C1.92148 16.7499 0.567383 21.4753 0.567383 26.298C0.567383 31.1208 1.92148 35.8462 4.4749 39.9342C7.02832 44.0222 10.678 47.3079 15.0069 49.4157C19.3358 51.5234 24.1691 52.3683 28.9545 51.8536C33.7398 51.3389 38.2842 49.4855 42.068 46.5052C39.0125 44.1022 36.5426 41.0341 34.8453 37.5331C33.148 34.0322 32.2678 30.1902 32.2713 26.298Z" fill="#EB001B"/>
<path d="M83.5677 26.2981C83.5679 31.1207 82.214 35.8461 79.6607 39.9341C77.1074 44.0221 73.4578 47.3078 69.129 49.4156C64.8003 51.5234 59.967 52.3683 55.1817 51.8536C50.3964 51.339 45.8521 49.4855 42.0684 46.5052C45.1212 44.0998 47.5892 41.0312 49.2862 37.5308C50.9833 34.0304 51.865 30.1896 51.865 26.2981C51.865 22.4065 50.9833 18.5657 49.2862 15.0653C47.5892 11.5649 45.1212 8.49633 42.0684 6.09089C45.8521 3.11058 50.3964 1.25715 55.1817 0.74249C59.967 0.227826 64.8003 1.07268 69.129 3.18047C73.4578 5.28827 77.1074 8.57397 79.6607 12.662C82.214 16.75 83.5679 21.4754 83.5677 26.2981Z" fill="#F79E1B"/>
<path d="M81.1205 42.2252V41.3977H81.4534V41.2292H80.6055V41.3977H80.9386V42.2252H81.1205ZM82.7667 42.2252V41.2275H82.5068L82.2078 41.9137L81.9088 41.2275H81.6487V42.2252H81.8322V41.4726L82.1126 42.1214H82.3029L82.5833 41.471V42.2252H82.7667Z" fill="#F79E1B"/>
</svg>
