<svg width="177" height="49" viewBox="0 0 177 49" fill="none" xmlns="http://www.w3.org/2000/svg">
<path fill-rule="evenodd" clip-rule="evenodd" d="M16.8577 0.328495C18.4282 0.3191 23.0956 -0.101277 25.0727 6.57126C26.4044 11.0659 28.5258 18.4285 31.4369 28.6588H32.6225C35.7443 17.8733 37.8889 10.5107 39.0562 6.57126C41.0538 -0.170783 46.0479 0.328627 48.0455 0.328627L63.4578 0.328647V48.2719H47.7492V20.0181H46.6958L37.9391 48.2719H26.1203L17.3636 19.9972H16.3102V48.2719H0.601562V0.328647L16.8577 0.328495ZM86.0151 0.328647V28.6034H87.2682L97.92 5.35328C99.9878 0.72643 104.395 0.328647 104.395 0.328647H119.596V48.272H103.559V19.9972H102.306L91.8631 43.2474C89.7954 47.8533 85.1796 48.272 85.1796 48.272H69.9784V0.328647H86.0151ZM175.026 23.1117C172.789 29.4506 165.764 33.9904 157.986 33.9904H141.169V48.272H125.919V23.1117H175.026Z" fill="#0F754E"/>
<path fill-rule="evenodd" clip-rule="evenodd" d="M158.722 0.329102H125.119C125.919 11.0029 135.111 20.1404 144.627 20.1404H176.085C177.901 11.2692 171.651 0.329102 158.722 0.329102Z" fill="url(#paint0_linear_154_8598)"/>
<defs>
<linearGradient id="paint0_linear_154_8598" x1="5252.6" y1="1246.55" x2="125.119" y2="1246.55" gradientUnits="userSpaceOnUse">
<stop stop-color="#1F5CD7"/>
<stop offset="1" stop-color="#02AEFF"/>
</linearGradient>
</defs>
</svg>
