<svg width="144" height="47" viewBox="0 0 144 47" fill="none" xmlns="http://www.w3.org/2000/svg">
<path d="M93.7382 0.179688C83.5979 0.179688 74.4934 5.45611 74.4934 15.1386C74.4934 26.2898 90.5762 27.0514 90.5762 32.5998C90.5762 34.9388 87.8503 37.0602 83.2708 37.0602C76.7286 37.0602 71.8221 34.1228 71.8221 34.1228L69.7504 43.9141C69.7504 43.9141 75.3657 46.4164 82.8892 46.4164C94.0108 46.4164 102.734 40.9224 102.734 31.0223C102.734 19.2727 86.5964 18.5112 86.5964 13.3435C86.5964 11.4941 88.8316 9.48142 93.4111 9.48142C98.5903 9.48142 102.843 11.6029 102.843 11.6029L104.914 2.13795C104.86 2.13795 100.226 0.179688 93.7382 0.179688ZM0.839971 0.886837L0.567383 2.30113C0.567383 2.30113 4.81977 3.06268 8.69052 4.64017C13.6516 6.43524 13.9787 7.46876 14.851 10.6781L23.9555 45.6548H36.1675L54.867 0.886837H42.7096L30.6612 31.3486L25.7546 5.5105C25.3184 2.57312 23.0287 0.886837 20.1938 0.886837H0.839971ZM59.7736 0.886837L50.233 45.6548H61.8453L71.3314 0.886837H59.7736ZM124.432 0.886837C121.651 0.886837 120.179 2.35553 119.089 4.96654L102.079 45.6548H114.237L116.581 38.8553H131.41L132.827 45.6548H143.567L134.245 0.886837H124.432ZM126.013 13.0172L129.611 29.8256H119.961L126.013 13.0172Z" fill="#1434CB"/>
</svg>
