<svg width="28" height="37" viewBox="0 0 28 37" fill="none" xmlns="http://www.w3.org/2000/svg">
<path d="M0.454102 5C0.454102 3.80653 0.928207 2.66193 1.77212 1.81802C2.61603 0.974106 3.76063 0.5 4.9541 0.5L22.9541 0.5C24.1476 0.5 25.2922 0.974106 26.1361 1.81802C26.98 2.66193 27.4541 3.80653 27.4541 5V32C27.4541 33.1935 26.98 34.3381 26.1361 35.182C25.2922 36.0259 24.1476 36.5 22.9541 36.5H4.9541C3.76063 36.5 2.61603 36.0259 1.77212 35.182C0.928207 34.3381 0.454102 33.1935 0.454102 32V5ZM4.9541 6.125V10.625C4.9541 10.9234 5.07263 11.2095 5.28361 11.4205C5.49459 11.6315 5.78073 11.75 6.0791 11.75H21.8291C22.1275 11.75 22.4136 11.6315 22.6246 11.4205C22.8356 11.2095 22.9541 10.9234 22.9541 10.625V6.125C22.9541 5.82663 22.8356 5.54048 22.6246 5.3295C22.4136 5.11853 22.1275 5 21.8291 5H6.0791C5.78073 5 5.49459 5.11853 5.28361 5.3295C5.07263 5.54048 4.9541 5.82663 4.9541 6.125ZM4.9541 15.125V17.375C4.9541 17.6734 5.07263 17.9595 5.28361 18.1705C5.49459 18.3815 5.78073 18.5 6.0791 18.5H8.3291C8.62747 18.5 8.91362 18.3815 9.1246 18.1705C9.33558 17.9595 9.4541 17.6734 9.4541 17.375V15.125C9.4541 14.8266 9.33558 14.5405 9.1246 14.3295C8.91362 14.1185 8.62747 14 8.3291 14H6.0791C5.78073 14 5.49459 14.1185 5.28361 14.3295C5.07263 14.5405 4.9541 14.8266 4.9541 15.125ZM6.0791 20.75C5.78073 20.75 5.49459 20.8685 5.28361 21.0795C5.07263 21.2905 4.9541 21.5766 4.9541 21.875V24.125C4.9541 24.4234 5.07263 24.7095 5.28361 24.9205C5.49459 25.1315 5.78073 25.25 6.0791 25.25H8.3291C8.62747 25.25 8.91362 25.1315 9.1246 24.9205C9.33558 24.7095 9.4541 24.4234 9.4541 24.125V21.875C9.4541 21.5766 9.33558 21.2905 9.1246 21.0795C8.91362 20.8685 8.62747 20.75 8.3291 20.75H6.0791ZM4.9541 28.625V30.875C4.9541 31.1734 5.07263 31.4595 5.28361 31.6705C5.49459 31.8815 5.78073 32 6.0791 32H8.3291C8.62747 32 8.91362 31.8815 9.1246 31.6705C9.33558 31.4595 9.4541 31.1734 9.4541 30.875V28.625C9.4541 28.3266 9.33558 28.0405 9.1246 27.8295C8.91362 27.6185 8.62747 27.5 8.3291 27.5H6.0791C5.78073 27.5 5.49459 27.6185 5.28361 27.8295C5.07263 28.0405 4.9541 28.3266 4.9541 28.625ZM12.8291 14C12.5307 14 12.2446 14.1185 12.0336 14.3295C11.8226 14.5405 11.7041 14.8266 11.7041 15.125V17.375C11.7041 17.6734 11.8226 17.9595 12.0336 18.1705C12.2446 18.3815 12.5307 18.5 12.8291 18.5H15.0791C15.3775 18.5 15.6636 18.3815 15.8746 18.1705C16.0856 17.9595 16.2041 17.6734 16.2041 17.375V15.125C16.2041 14.8266 16.0856 14.5405 15.8746 14.3295C15.6636 14.1185 15.3775 14 15.0791 14H12.8291ZM11.7041 21.875V24.125C11.7041 24.4234 11.8226 24.7095 12.0336 24.9205C12.2446 25.1315 12.5307 25.25 12.8291 25.25H15.0791C15.3775 25.25 15.6636 25.1315 15.8746 24.9205C16.0856 24.7095 16.2041 24.4234 16.2041 24.125V21.875C16.2041 21.5766 16.0856 21.2905 15.8746 21.0795C15.6636 20.8685 15.3775 20.75 15.0791 20.75H12.8291C12.5307 20.75 12.2446 20.8685 12.0336 21.0795C11.8226 21.2905 11.7041 21.5766 11.7041 21.875ZM12.8291 27.5C12.5307 27.5 12.2446 27.6185 12.0336 27.8295C11.8226 28.0405 11.7041 28.3266 11.7041 28.625V30.875C11.7041 31.1734 11.8226 31.4595 12.0336 31.6705C12.2446 31.8815 12.5307 32 12.8291 32H15.0791C15.3775 32 15.6636 31.8815 15.8746 31.6705C16.0856 31.4595 16.2041 31.1734 16.2041 30.875V28.625C16.2041 28.3266 16.0856 28.0405 15.8746 27.8295C15.6636 27.6185 15.3775 27.5 15.0791 27.5H12.8291ZM18.4541 15.125V17.375C18.4541 17.6734 18.5726 17.9595 18.7836 18.1705C18.9946 18.3815 19.2807 18.5 19.5791 18.5H21.8291C22.1275 18.5 22.4136 18.3815 22.6246 18.1705C22.8356 17.9595 22.9541 17.6734 22.9541 17.375V15.125C22.9541 14.8266 22.8356 14.5405 22.6246 14.3295C22.4136 14.1185 22.1275 14 21.8291 14H19.5791C19.2807 14 18.9946 14.1185 18.7836 14.3295C18.5726 14.5405 18.4541 14.8266 18.4541 15.125ZM19.5791 20.75C19.2807 20.75 18.9946 20.8685 18.7836 21.0795C18.5726 21.2905 18.4541 21.5766 18.4541 21.875V30.875C18.4541 31.1734 18.5726 31.4595 18.7836 31.6705C18.9946 31.8815 19.2807 32 19.5791 32H21.8291C22.1275 32 22.4136 31.8815 22.6246 31.6705C22.8356 31.4595 22.9541 31.1734 22.9541 30.875V21.875C22.9541 21.5766 22.8356 21.2905 22.6246 21.0795C22.4136 20.8685 22.1275 20.75 21.8291 20.75H19.5791Z" fill="black" fill-opacity="0.7"/>
</svg>
