<svg width="60" height="60" viewBox="0 0 60 60" fill="none" xmlns="http://www.w3.org/2000/svg">
<g clip-path="url(#clip0_152_21560)">
<path d="M30 53.8097C43.0952 53.8097 53.8095 43.0954 53.8095 30.0002C53.8095 16.9049 43.0952 6.19066 30 6.19066C16.9048 6.19066 6.19048 16.9049 6.19048 30.0002C6.19048 43.0954 16.9048 53.8097 30 53.8097ZM30 0.238281C46.3691 0.238281 59.7619 13.6311 59.7619 30.0002C59.7619 46.3692 46.3691 59.7621 30 59.7621C13.631 59.7621 0.238098 46.3692 0.238098 30.0002C0.238098 13.6311 13.631 0.238281 30 0.238281ZM42.6488 28.5121C43.8816 28.5121 44.881 29.5115 44.881 30.7442V30.7442C44.881 31.977 43.8816 32.9764 42.6488 32.9764H27.0238V17.3514C27.0238 16.1186 28.0232 15.1192 29.256 15.1192V15.1192C30.4887 15.1192 31.4881 16.1186 31.4881 17.3514V28.5121H42.6488Z" fill="white"/>
</g>
<defs>
<clipPath id="clip0_152_21560">
<rect width="60" height="60" fill="white"/>
</clipPath>
</defs>
</svg>
