<svg width="21" height="20" viewBox="0 0 21 20" fill="none" xmlns="http://www.w3.org/2000/svg">
<path d="M3.23203 0.490874L10.25 7.50855L17.2316 0.527235C17.3858 0.363097 17.5716 0.231792 17.7778 0.141194C17.984 0.0505961 18.2064 0.00257135 18.4316 0C18.9138 0 19.3762 0.191544 19.7172 0.532495C20.0582 0.873445 20.2497 1.33587 20.2497 1.81805C20.2539 2.04095 20.2126 2.26236 20.1282 2.4687C20.0438 2.67504 19.9181 2.86195 19.7588 3.01796L12.6863 9.99928L19.7588 17.0715C20.0585 17.3646 20.2342 17.7616 20.2497 18.1805C20.2497 18.6627 20.0582 19.1251 19.7172 19.4661C19.3762 19.807 18.9138 19.9986 18.4316 19.9986C18.1999 20.0082 17.9687 19.9695 17.7527 19.885C17.5368 19.8005 17.3407 19.672 17.1771 19.5077L10.25 12.49L3.25021 19.4895C3.09659 19.6482 2.91306 19.7748 2.71023 19.8622C2.50739 19.9496 2.28926 19.9959 2.06842 19.9986C1.58623 19.9986 1.12378 19.807 0.782813 19.4661C0.441848 19.1251 0.250296 18.6627 0.250296 18.1805C0.246057 17.9576 0.287414 17.7362 0.371828 17.5299C0.456243 17.3235 0.581935 17.1366 0.74119 16.9806L7.81371 9.99928L0.74119 2.92706C0.441536 2.63392 0.265822 2.23695 0.250296 1.81805C0.250296 1.33587 0.441848 0.873445 0.782813 0.532495C1.12378 0.191544 1.58623 0 2.06842 0C2.50477 0.00545415 2.92294 0.181805 3.23203 0.490874Z" fill="black" fill-opacity="0.7"/>
</svg>
