<svg width="23" height="14" viewBox="0 0 23 14" fill="none" xmlns="http://www.w3.org/2000/svg">
<path d="M22.4254 0.950347C22.1257 0.650116 21.7708 0.500001 21.3607 0.500001C20.9507 0.500001 20.5962 0.650116 20.2973 0.950347L11.515 9.7471L2.70273 0.920323C2.42298 0.640108 2.07329 0.5 1.65366 0.5C1.23403 0.5 0.874341 0.650115 0.574605 0.950346C0.274868 1.25058 0.125 1.60605 0.125 2.01676C0.125 2.42748 0.274868 2.78255 0.574605 3.08198L10.6757 13.1697C10.7956 13.2898 10.9255 13.3751 11.0654 13.4255C11.2053 13.476 11.3551 13.5008 11.515 13.5C11.6748 13.5 11.8247 13.4748 11.9646 13.4243C12.1045 13.3739 12.2344 13.289 12.3542 13.1697L22.4554 3.05196C22.7351 2.77174 22.875 2.42628 22.875 2.01556C22.875 1.60485 22.7251 1.24978 22.4254 0.950347Z" fill="black" fill-opacity="0.7"/>
</svg>
