<svg width="51" height="62" viewBox="0 0 51 62" fill="none" xmlns="http://www.w3.org/2000/svg">
<path fill-rule="evenodd" clip-rule="evenodd" d="M0.438477 25.6889C0.438477 11.6772 11.6229 0.253906 25.4996 0.253906C39.3763 0.253906 50.5608 11.6772 50.5608 25.6889C50.5608 32.4531 48.6303 39.7178 45.2163 45.9929C41.808 52.2594 36.8301 57.7051 30.5978 60.6139C29.0019 61.3595 27.2615 61.746 25.4996 61.746C23.7377 61.746 21.9973 61.3595 20.4015 60.6139C14.1691 57.7051 9.19126 52.2623 5.78294 45.9929C2.3689 39.7178 0.438477 32.4531 0.438477 25.6889ZM25.4996 4.54408C14.066 4.54408 4.73467 13.9739 4.73467 25.6889C4.73467 31.6866 6.46174 38.2506 9.55787 43.9451C12.6569 49.6453 17.039 54.3102 22.2173 56.727C23.2442 57.2074 24.3642 57.4564 25.4982 57.4564C26.6321 57.4564 27.7522 57.2074 28.779 56.727C33.9603 54.3102 38.3424 49.6453 41.4414 43.9451C44.5375 38.2534 46.2646 31.6866 46.2646 25.6889C46.2646 13.9739 36.9332 4.54408 25.4996 4.54408ZM25.4996 18.8447C24.6533 18.8447 23.8153 19.0111 23.0335 19.3345C22.2516 19.6579 21.5412 20.132 20.9428 20.7295C20.3444 21.3271 19.8697 22.0365 19.5459 22.8173C19.222 23.598 19.0553 24.4349 19.0553 25.2799C19.0553 26.125 19.222 26.9619 19.5459 27.7426C19.8697 28.5234 20.3444 29.2328 20.9428 29.8304C21.5412 30.4279 22.2516 30.902 23.0335 31.2254C23.8153 31.5488 24.6533 31.7152 25.4996 31.7152C27.2088 31.7152 28.8479 31.0372 30.0564 29.8304C31.265 28.6235 31.9439 26.9867 31.9439 25.2799C31.9439 23.5732 31.265 21.9364 30.0564 20.7295C28.8479 19.5227 27.2088 18.8447 25.4996 18.8447ZM14.7591 25.2799C14.7591 22.4354 15.8907 19.7073 17.9049 17.6959C19.9192 15.6845 22.6511 14.5545 25.4996 14.5545C28.3482 14.5545 31.0801 15.6845 33.0943 17.6959C35.1085 19.7073 36.2401 22.4354 36.2401 25.2799C36.2401 28.1245 35.1085 30.8526 33.0943 32.864C31.0801 34.8754 28.3482 36.0054 25.4996 36.0054C22.6511 36.0054 19.9192 34.8754 17.9049 32.864C15.8907 30.8526 14.7591 28.1245 14.7591 25.2799Z" fill="black" fill-opacity="0.7"/>
</svg>
