<svg width="46" height="27" viewBox="0 0 46 27" fill="none" xmlns="http://www.w3.org/2000/svg">
<path d="M25.7338 4.29529C25.7338 3.99014 25.8506 3.69749 26.0584 3.48171C26.2661 3.26594 26.548 3.14472 26.8418 3.14472H44.5691C44.8629 3.14472 45.1447 3.26594 45.3525 3.48171C45.5603 3.69749 45.677 3.99014 45.677 4.29529C45.677 4.60044 45.5603 4.89309 45.3525 5.10886C45.1447 5.32464 44.8629 5.44586 44.5691 5.44586H26.8418C26.548 5.44586 26.2661 5.32464 26.0584 5.10886C25.8506 4.89309 25.7338 4.60044 25.7338 4.29529ZM44.5691 12.3493H26.8418C26.548 12.3493 26.2661 12.4705 26.0584 12.6863C25.8506 12.902 25.7338 13.1947 25.7338 13.4998C25.7338 13.805 25.8506 14.0976 26.0584 14.3134C26.2661 14.5292 26.548 14.6504 26.8418 14.6504H44.5691C44.8629 14.6504 45.1447 14.5292 45.3525 14.3134C45.5603 14.0976 45.677 13.805 45.677 13.4998C45.677 13.1947 45.5603 12.902 45.3525 12.6863C45.1447 12.4705 44.8629 12.3493 44.5691 12.3493ZM44.5691 21.5538H31.2736C30.9798 21.5538 30.698 21.675 30.4902 21.8908C30.2824 22.1066 30.1657 22.3992 30.1657 22.7044C30.1657 23.0095 30.2824 23.3022 30.4902 23.518C30.698 23.7337 30.9798 23.8549 31.2736 23.8549H44.5691C44.8629 23.8549 45.1447 23.7337 45.3525 23.518C45.5603 23.3022 45.677 23.0095 45.677 22.7044C45.677 22.3992 45.5603 22.1066 45.3525 21.8908C45.1447 21.675 44.8629 21.5538 44.5691 21.5538ZM26.4374 25.4849C26.4738 25.6312 26.482 25.7835 26.4617 25.9332C26.4414 26.0828 26.3929 26.2268 26.319 26.357C26.2451 26.4871 26.1473 26.6009 26.031 26.6918C25.9148 26.7827 25.7824 26.8489 25.6415 26.8867C25.5006 26.9245 25.354 26.9331 25.2099 26.912C25.0658 26.8909 24.9271 26.8405 24.8018 26.7638C24.6764 26.687 24.5669 26.5854 24.4793 26.4647C24.3918 26.344 24.328 26.2065 24.2917 26.0602C23.0932 21.2259 18.5746 17.7186 13.5463 17.7186C8.51808 17.7186 3.99947 21.2259 2.80103 26.0583C2.76466 26.2046 2.70089 26.342 2.61337 26.4628C2.52585 26.5835 2.41628 26.6851 2.29094 26.7618C2.16559 26.8386 2.02692 26.889 1.88283 26.91C1.73874 26.9311 1.59207 26.9226 1.45118 26.8848C1.31029 26.847 1.17794 26.7808 1.06169 26.6899C0.945446 26.599 0.847576 26.4852 0.773672 26.3551C0.699767 26.2249 0.651276 26.0809 0.630965 25.9313C0.610654 25.7816 0.618922 25.6293 0.655296 25.483C1.71524 21.2106 4.90246 17.7991 8.90402 16.2785C7.37132 15.2397 6.20268 13.7147 5.57211 11.9305C4.94154 10.1463 4.88277 8.19825 5.40454 6.37653C5.92632 4.55481 7.00074 2.95681 8.46781 1.82049C9.93489 0.684175 11.7161 0.0703125 13.5463 0.0703125C15.3766 0.0703125 17.1578 0.684175 18.6249 1.82049C20.092 2.95681 21.1664 4.55481 21.6882 6.37653C22.2099 8.19825 22.1512 10.1463 21.5206 11.9305C20.89 13.7147 19.7214 15.2397 18.1887 16.2785C22.1865 17.801 25.3793 21.2125 26.4374 25.4849ZM13.5463 15.4174C14.7881 15.4174 16.002 15.0351 17.0344 14.3187C18.0669 13.6022 18.8716 12.584 19.3468 11.3926C19.822 10.2013 19.9464 8.89033 19.7041 7.62559C19.4619 6.36086 18.8639 5.19913 17.9859 4.2873C17.1078 3.37548 15.9891 2.75452 14.7712 2.50295C13.5533 2.25138 12.2909 2.3805 11.1437 2.87397C9.99648 3.36745 9.01592 4.20312 8.32604 5.27531C7.63616 6.3475 7.26794 7.60805 7.26794 8.89756C7.26794 10.6267 7.92941 12.2851 9.10684 13.5078C10.2843 14.7305 11.8812 15.4174 13.5463 15.4174Z" fill="black" fill-opacity="0.7"/>
</svg>
