<svg width="38" height="42" viewBox="0 0 38 42" fill="none" xmlns="http://www.w3.org/2000/svg">
<path d="M18.5835 20.0001C19.0279 20.0001 19.4446 20.069 19.8335 20.2068C20.2223 20.3446 20.5835 20.5812 20.9168 20.9168L36.2501 36.2501C36.8612 36.8612 37.1812 37.6257 37.2101 38.5435C37.239 39.4612 36.919 40.2523 36.2501 40.9168C35.639 41.5279 34.8612 41.8335 33.9168 41.8335C32.9723 41.8335 32.1946 41.5279 31.5835 40.9168L18.5835 28.0001L5.58345 40.9168C4.97234 41.5279 4.2079 41.8468 3.29012 41.8735C2.37234 41.9001 1.58123 41.5812 0.916786 40.9168C0.305676 40.3057 0.000114441 39.5279 0.000114441 38.5835C0.000114441 37.639 0.305676 36.8612 0.916786 36.2501L16.2501 20.9168C16.5835 20.5835 16.9446 20.3468 17.3335 20.2068C17.7223 20.0668 18.139 19.9979 18.5835 20.0001ZM18.5835 0.000125885C19.0279 0.000125885 19.4446 0.0690155 19.8335 0.206791C20.2223 0.34457 20.5835 0.581242 20.9168 0.916798L36.2501 16.2501C36.8612 16.8612 37.1812 17.6246 37.2101 18.5401C37.239 19.4557 36.919 20.2479 36.2501 20.9168C35.639 21.5279 34.8612 21.8335 33.9168 21.8335C32.9723 21.8335 32.1946 21.5279 31.5835 20.9168L18.5835 8.00013L5.58345 20.9168C4.97234 21.5279 4.2079 21.8479 3.29012 21.8768C2.37234 21.9057 1.58123 21.5857 0.916786 20.9168C0.305676 20.3057 0.000114441 19.5279 0.000114441 18.5835C0.000114441 17.639 0.305676 16.8612 0.916786 16.2501L16.2501 0.916798C16.5835 0.583462 16.9446 0.346794 17.3335 0.206791C17.7223 0.0667915 18.139 -0.00209808 18.5835 0.000125885Z" fill="black"/>
</svg>
