<svg width="62" height="62" viewBox="0 0 62 62" fill="none" xmlns="http://www.w3.org/2000/svg">
<circle cx="31.0002" cy="18.8693" r="7.09783" stroke="black" stroke-opacity="0.7" stroke-width="4"/>
<path d="M16.489 47.3423C16.489 46.5138 16.8454 45.092 17.675 43.2978C18.4808 41.5549 19.6506 39.6388 21.0747 37.8651C24.0151 34.2028 27.6137 31.652 30.9429 31.652C34.2765 31.652 37.9041 34.2077 40.8738 37.8721C42.3121 39.6469 43.4953 41.5636 44.3109 43.3062C45.151 45.1013 45.5107 46.5196 45.5107 47.3423C45.5107 47.6601 45.3921 48.0369 44.6027 48.5086C43.7597 49.0123 42.449 49.4152 40.778 49.6973C37.6152 50.2314 33.866 50.2296 31.3035 50.2283C31.1805 50.2282 31.0602 50.2281 30.9429 50.2281C30.8258 50.2281 30.7058 50.2282 30.5831 50.2283C28.0225 50.2295 24.3017 50.2314 21.1674 49.6978C19.5118 49.4159 18.2172 49.014 17.3862 48.5128C16.6116 48.0456 16.489 47.6697 16.489 47.3423Z" stroke="black" stroke-opacity="0.7" stroke-width="4"/>
<circle cx="31" cy="31" r="29" stroke="black" stroke-opacity="0.7" stroke-width="4"/>
</svg>
