<svg width="112" height="103" viewBox="0 0 112 103" fill="none" xmlns="http://www.w3.org/2000/svg">
<g clip-path="url(#clip0_108_15309)">
<path d="M22.3266 21.5967C22.3266 22.791 21.7547 23.733 20.6108 24.4228C19.467 25.1144 17.983 25.4603 16.1587 25.4603C13.7291 25.4603 11.9689 24.8748 10.8784 23.7038C10.3084 23.0842 10.0234 22.452 10.0234 21.8071C10.0234 21.6902 10.0619 21.5967 10.1388 21.5265C10.2177 21.4564 10.3104 21.4213 10.4169 21.4213H14.3099C14.44 21.4213 14.5702 21.4827 14.7003 21.6054C14.8305 21.7282 14.9252 21.8129 14.9843 21.8597C15.1737 21.9883 15.5178 22.0526 16.0167 22.0526C17.0245 22.0526 17.5284 21.8012 17.5284 21.2986C17.5284 20.8992 17.0718 20.6995 16.1587 20.6995H13.7951C13.663 20.6995 13.5496 20.6527 13.4549 20.5592C13.3603 20.4657 13.313 20.3546 13.313 20.226V18.0662C13.313 17.9377 13.3603 17.8266 13.4549 17.7331C13.5496 17.6396 13.663 17.5928 13.7951 17.5928H16.1587C17.0718 17.5928 17.5284 17.3931 17.5284 16.9937C17.5284 16.7482 17.4032 16.5611 17.1527 16.4326C16.9042 16.304 16.5966 16.2397 16.2297 16.2397C15.8629 16.2397 15.5809 16.2601 15.3837 16.301C15.1885 16.342 15.0583 16.3858 14.9932 16.4326C14.9281 16.4793 14.8305 16.5641 14.7003 16.6868C14.5702 16.8096 14.44 16.8709 14.3099 16.8709H10.4169C10.3104 16.8709 10.2177 16.8359 10.1388 16.7657C10.0619 16.6956 10.0234 16.6021 10.0234 16.4852C10.0234 15.6883 10.4741 14.9041 11.3753 14.1325C11.827 13.7448 12.4669 13.4282 13.2952 13.1827C14.1255 12.9372 15.08 12.8145 16.1587 12.8145C17.9711 12.8145 19.4522 13.1652 20.602 13.8666C21.7517 14.5699 22.3266 15.5188 22.3266 16.7131C22.3266 17.3346 22.1254 17.8675 21.7231 18.3117C21.3208 18.756 20.9352 19.0307 20.5665 19.1359C20.9234 19.2314 21.306 19.5129 21.7142 19.9805C22.1225 20.4481 22.3266 20.9868 22.3266 21.5967Z" fill="black" fill-opacity="0.7"/>
<path d="M28.8877 25.2853H25.5272C25.4207 25.2853 25.329 25.2473 25.2521 25.1714C25.1752 25.0954 25.1367 25.0223 25.1367 24.9522C25.1367 24.882 25.1426 24.8294 25.1545 24.7944L29.0297 13.5689C29.1362 13.1831 29.4034 12.9902 29.8314 12.9902H34.7716C35.1995 12.9902 35.4668 13.1831 35.5732 13.5689L39.4485 24.7944C39.4603 24.8294 39.4662 24.882 39.4662 24.9522C39.4662 25.0223 39.4278 25.0954 39.3509 25.1714C39.274 25.2473 39.1823 25.2853 39.0758 25.2853L35.7152 25.2853C35.3366 25.2853 35.0694 25.0866 34.9136 24.6891L34.4698 23.4588H30.1331L29.6864 24.6891C29.5326 25.0866 29.2664 25.2853 28.8877 25.2853ZM31.0383 20.0335H33.5646L32.3015 16.3804L31.0383 20.0335Z" fill="black" fill-opacity="0.7"/>
<path d="M48.9593 10.2656H50.7194C50.9442 10.2656 51.0566 10.3426 51.0566 10.4965C51.0566 11.0459 50.7845 11.5106 50.2402 11.8906C49.6959 12.2724 48.9169 12.4634 47.9032 12.4634C46.8895 12.4634 46.1095 12.2724 45.5633 11.8906C45.0189 11.5106 44.7468 11.0459 44.7468 10.4965C44.7468 10.3426 44.8592 10.2656 45.084 10.2656L46.8442 10.2656C47.0216 10.2656 47.1341 10.3426 47.1814 10.4965C47.2524 10.7888 47.4782 10.9349 47.8588 10.9349C48.2375 10.9349 48.4919 10.7888 48.622 10.4965C48.693 10.3426 48.8054 10.2656 48.9593 10.2656ZM42.114 12.9894H45.4213C45.5514 12.9894 45.6638 13.0362 45.7585 13.1297C45.8551 13.2232 45.9034 13.3343 45.9034 13.4629V18.627L49.7787 13.3401C49.9562 13.1063 50.1869 12.9894 50.4709 12.9894L53.3522 12.9894C53.4824 12.9894 53.5948 13.0362 53.6894 13.1297C53.7841 13.2232 53.8314 13.3343 53.8314 13.4629V24.8111C53.8314 24.9397 53.7841 25.0507 53.6894 25.1443C53.5948 25.2378 53.4824 25.2845 53.3522 25.2845L50.0449 25.2845C49.9148 25.2845 49.8024 25.2378 49.7077 25.1443C49.613 25.0507 49.5657 24.9397 49.5657 24.8111V20.0327L45.6875 24.9163C45.4982 25.1618 45.2615 25.2845 44.9775 25.2845H42.114C41.9838 25.2845 41.8714 25.2378 41.7768 25.1443C41.6821 25.0507 41.6348 24.9397 41.6348 24.8111L41.6348 13.4629C41.6348 13.3343 41.6821 13.2232 41.7768 13.1297C41.8714 13.0362 41.9838 12.9894 42.114 12.9894Z" fill="black" fill-opacity="0.7"/>
<path d="M66.4188 12.9902L69.6729 12.9902C69.803 12.9902 69.9154 13.037 70.0101 13.1305C70.1048 13.224 70.1521 13.3351 70.1521 13.4637V24.8119C70.1521 24.9405 70.1048 25.0515 70.0101 25.1451C69.9154 25.2386 69.803 25.2853 69.6729 25.2853L66.4543 25.2853C66.3242 25.2853 66.2118 25.2386 66.1171 25.1451C66.0224 25.0515 65.9751 24.9405 65.9751 24.8119V19.3672L64.6765 21.8952C64.6055 22.0355 64.499 22.1436 64.357 22.2196C64.215 22.2956 64.073 22.3336 63.931 22.3336H62.7211C62.5199 22.3336 62.3543 22.281 62.2241 22.1758C62.094 22.0706 62.0111 21.977 61.9756 21.8952L60.677 19.3672V24.8119C60.677 24.9405 60.6296 25.0515 60.535 25.1451C60.4403 25.2386 60.3279 25.2853 60.1977 25.2853H56.9792C56.8491 25.2853 56.7367 25.2386 56.642 25.1451C56.5473 25.0515 56.5 24.9405 56.5 24.8119V13.4637C56.5 13.3351 56.5473 13.224 56.642 13.1305C56.7367 13.037 56.8491 12.9902 56.9792 12.9902L60.2332 12.9902C60.5646 12.9902 60.819 13.1481 60.9965 13.4637L63.3246 17.6809L65.6556 13.4637C65.8331 13.1481 66.0875 12.9902 66.4188 12.9902Z" fill="black" fill-opacity="0.7"/>
<path d="M73.1931 12.9902L76.5004 12.9902C76.6305 12.9902 76.7429 13.037 76.8376 13.1305C76.9323 13.224 76.9796 13.3351 76.9796 13.4637V18.6278L80.8548 13.3409C81.0323 13.1071 81.2641 12.9902 81.55 12.9902L84.4283 12.9902C84.5585 12.9902 84.6709 13.037 84.7656 13.1305C84.8622 13.224 84.9105 13.3351 84.9105 13.4637V24.8119C84.9105 24.9405 84.8622 25.0515 84.7656 25.1451C84.6709 25.2386 84.5585 25.2853 84.4283 25.2853L81.1211 25.2853C80.9909 25.2853 80.8785 25.2386 80.7838 25.1451C80.6892 25.0515 80.6418 24.9405 80.6418 24.8119V20.0335L76.7666 24.9171C76.5773 25.1626 76.3406 25.2853 76.0566 25.2853H73.1931C73.0629 25.2853 72.9505 25.2386 72.8559 25.1451C72.7612 25.0515 72.7139 24.9405 72.7139 24.8119V13.4637C72.7139 13.3351 72.7612 13.224 72.8559 13.1305C72.9505 13.037 73.0629 12.9902 73.1931 12.9902Z" fill="black" fill-opacity="0.7"/>
<path d="M96.9439 18.6979L101.745 24.6716C101.792 24.7417 101.816 24.8236 101.816 24.9171C101.816 25.0106 101.778 25.0954 101.701 25.1714C101.624 25.2473 101.532 25.2853 101.426 25.2853L96.8374 25.2853C96.5652 25.2853 96.3522 25.1918 96.1984 25.0048L93.1041 21.2289V24.8119C93.1041 24.9405 93.0568 25.0515 92.9621 25.1451C92.8674 25.2386 92.755 25.2853 92.6249 25.2853H88.9626C88.8325 25.2853 88.7201 25.2386 88.6254 25.1451C88.5307 25.0515 88.4834 24.9405 88.4834 24.8119V13.4637C88.4834 13.3351 88.5307 13.224 88.6254 13.1305C88.7201 13.037 88.8325 12.9902 88.9626 12.9902L92.6249 12.9902C92.755 12.9902 92.8674 13.037 92.9621 13.1305C93.0568 13.224 93.1041 13.3351 93.1041 13.4637V16.7661L95.9144 13.2883C96.0919 13.0896 96.3108 12.9902 96.5711 12.9902L100.855 12.9902C100.963 12.9902 101.056 13.0282 101.133 13.1042C101.21 13.1802 101.248 13.2679 101.248 13.3672C101.248 13.4666 101.218 13.5514 101.159 13.6215L96.9439 18.6979Z" fill="black" fill-opacity="0.7"/>
<path d="M81.1673 66.4721H79.9608C80.024 66.1667 79.9719 65.8377 79.7848 65.5553L71.1455 52.4762C71.0762 52.2454 70.9406 52.0399 70.7536 51.8848L69.5643 50.0834C68.9786 49.1963 68.0801 48.5855 67.0337 48.3589C66.9767 48.3359 66.9196 48.3128 66.8577 48.2983C66.7123 48.2638 66.5664 48.2607 66.4253 48.2765C65.5532 48.2195 64.6908 48.4365 63.9462 48.9164L62.3258 49.9616C61.8818 49.4665 61.3187 49.0848 60.6735 48.8533L43.0943 42.5498C42.075 42.1838 40.9728 42.2323 39.9903 42.6861C39.0077 43.14 38.2631 43.9441 37.8927 44.9511L26.0555 77.1716C25.685 78.1787 25.7347 79.2682 26.1941 80.2389C26.6534 81.2096 27.4673 81.9452 28.4867 82.3106L42.4123 87.3041V88.9595C42.4123 91.1705 44.2339 92.9701 46.4725 92.9701L81.1679 92.9701C83.4059 92.9701 85.2281 91.1705 85.2281 88.9595L85.2281 70.4827C85.2275 68.2717 83.4053 66.4721 81.1673 66.4721ZM48.1303 90.5149L70.6125 68.9273H73.2449L50.7634 90.5149H48.1303ZM44.8969 88.9595L44.8969 70.4827C44.8969 69.6253 45.6034 68.9273 46.4719 68.9273L66.5645 68.9273C66.5658 68.9273 66.5676 68.9279 66.5688 68.9279C66.5713 68.9279 66.5725 68.9273 66.5743 68.9273H67.0466L45.217 89.889C45.0183 89.6284 44.8969 89.3091 44.8969 88.9595ZM67.4005 51.3225C67.4281 51.3571 67.4594 51.3874 67.4833 51.4243L68.613 53.1349L65.574 66.4721H63.7168L67.4005 51.3225ZM68.1205 66.4721L70.5064 56.0021L77.4235 66.4721H68.1205ZM64.8601 51.2577L61.1599 66.4721H46.4719C44.2333 66.4721 42.4117 68.2717 42.4117 70.4827L42.4117 81.8834L35.7902 71.8594C35.3155 71.1402 35.5209 70.1749 36.2484 69.7059L64.8601 51.2577ZM37.5259 53.1458L42.0363 63.0431L40.4803 64.0459L36.6274 55.5907L37.5259 53.1458ZM40.2288 45.7879C40.3724 45.3971 40.6612 45.0856 41.0421 44.9099C41.4236 44.7342 41.8511 44.7154 42.2467 44.8566L59.8253 51.1601C59.9529 51.2062 60.0682 51.2716 60.1773 51.3455L44.1425 61.6846L38.7421 49.8343L40.2288 45.7879ZM28.445 79.1985C28.2665 78.8222 28.2475 78.3999 28.3916 78.009L35.4112 58.9015L38.3741 65.4038L34.8904 67.6494C33.9821 68.2353 33.359 69.1351 33.1363 70.184C32.9131 71.2317 33.1167 72.3036 33.7098 73.201L40.955 84.1696L29.3343 80.0026C28.9393 79.8608 28.6228 79.5748 28.445 79.1985ZM82.7423 88.9595C82.7423 89.8169 82.0363 90.5149 81.1673 90.5149L54.3286 90.5149L76.8108 68.9273H81.1673C82.0363 68.9273 82.7423 69.6253 82.7423 70.4827L82.7423 88.9595Z" fill="black" fill-opacity="0.7"/>
<path d="M75.7809 82.4375C75.1474 82.4375 74.5641 82.6465 74.0931 82.9944C73.622 82.6465 73.0387 82.4375 72.4058 82.4375C70.8461 82.4375 69.582 83.6869 69.582 85.2272C69.582 86.7675 70.8461 88.0169 72.4058 88.0169C73.0387 88.0169 73.622 87.8085 74.0931 87.4601C74.5641 87.8085 75.1474 88.0169 75.7809 88.0169C77.34 88.0169 78.6047 86.7675 78.6047 85.2272C78.6047 83.6863 77.34 82.4375 75.7809 82.4375Z" fill="black" fill-opacity="0.7"/>
</g>
<defs>
<clipPath id="clip0_108_15309">
<rect width="92" height="83" fill="white" transform="translate(10 10)"/>
</clipPath>
</defs>
</svg>
